<svg width="52" height="40" viewBox="0 0 52 40" fill="none" xmlns="http://www.w3.org/2000/svg">
<path d="M0 20.962C0 19.8784 0.878434 19 1.96204 19C3.04564 19 3.92407 19.8784 3.92407 20.962V40H0V20.962Z" fill="#0088FF"/>
<path d="M7.92383 1.96204C7.92383 0.878434 8.80226 0 9.88586 0C10.9695 0 11.8479 0.878434 11.8479 1.96204V40H7.92383V1.96204Z" fill="#0088FF"/>
<path d="M15.8477 13.6261C15.8477 12.5425 16.7261 11.6641 17.8097 11.6641C18.8933 11.6641 19.7717 12.5425 19.7717 13.6261V40H15.8477V13.6261Z" fill="#0088FF"/>
<path d="M23.7725 20.962C23.7725 19.8784 24.6509 19 25.7345 19C26.8181 19 27.6965 19.8784 27.6965 20.962V40H23.7725V20.962Z" fill="#0088FF"/>
<path d="M31.6963 1.96204C31.6963 0.878434 32.5747 0 33.6583 0C34.7419 0 35.6204 0.878434 35.6204 1.96204V40H31.6963V1.96204Z" fill="#0088FF"/>
<path d="M39.6201 13.6261C39.6201 12.5425 40.4986 11.6641 41.5822 11.6641C42.6658 11.6641 43.5442 12.5425 43.5442 13.6261V40H39.6201V13.6261Z" fill="#0088FF"/>
<path d="M47.5449 20.962C47.5449 19.8784 48.4234 19 49.507 19C50.5906 19 51.469 19.8784 51.469 20.962V40H47.5449V20.962Z" fill="#0088FF"/>
</svg>
